<?xml version="1.0" encoding="UTF-8" standalone="no"?>
<!-- Created with Inkscape (http://www.inkscape.org/) -->

<svg
   xmlns:dc="http://purl.org/dc/elements/1.1/"
   xmlns:cc="http://creativecommons.org/ns#"
   xmlns:rdf="http://www.w3.org/1999/02/22-rdf-syntax-ns#"
   xmlns:svg="http://www.w3.org/2000/svg"
   xmlns="http://www.w3.org/2000/svg"
   xmlns:sodipodi="http://sodipodi.sourceforge.net/DTD/sodipodi-0.dtd"
   xmlns:inkscape="http://www.inkscape.org/namespaces/inkscape"
   id="svg2"
   version="1.1"
   inkscape:version="0.91 r13725"
   xml:space="preserve"
   width="544.90002"
   height="314.14999"
   viewBox="0 0 544.90002 314.14999"
   sodipodi:docname="132.eps"><metadata
     id="metadata8"><rdf:RDF><cc:Work
         rdf:about=""><dc:format>image/svg+xml</dc:format><dc:type
           rdf:resource="http://purl.org/dc/dcmitype/StillImage" /><dc:title></dc:title></cc:Work></rdf:RDF></metadata><defs
     id="defs6" /><sodipodi:namedview
     pagecolor="#ffffff"
     bordercolor="#666666"
     borderopacity="1"
     objecttolerance="10"
     gridtolerance="10"
     guidetolerance="10"
     inkscape:pageopacity="0"
     inkscape:pageshadow="2"
     inkscape:window-width="1366"
     inkscape:window-height="676"
     id="namedview4"
     showgrid="false"
     inkscape:zoom="0.69187004"
     inkscape:cx="272.45001"
     inkscape:cy="154.18428"
     inkscape:window-x="0"
     inkscape:window-y="27"
     inkscape:window-maximized="1"
     inkscape:current-layer="g10" /><g
     id="g10"
     inkscape:groupmode="layer"
     inkscape:label="ink_ext_XXXXXX"
     transform="matrix(1.25,0,0,-1.25,0,314.15)"><g
       id="g12"
       transform="scale(0.1,0.1)"><path
         d="m 186.063,610.969 c -31.649,0 -56.141,-11.887 -73.504,-35.66 -17.3637,-23.778 -26.0356,-56.911 -26.0356,-99.399 0,-88.43 33.1716,-132.64 99.5396,-132.64 27.843,0 61.566,6.96 101.164,20.89 l 0,-70.519 C 254.68,280.07 218.34,273.301 178.191,273.301 120.52,273.301 76.3984,290.789 45.8398,325.781 15.2734,360.77 0,410.98 0,476.441 c 0,41.231 7.5,77.348 22.5117,108.36 15.0078,31.008 36.5703,54.789 64.6875,71.328 28.1138,16.543 61.0708,24.82 98.8638,24.82 38.515,0 77.207,-9.308 116.085,-27.937 L 275.027,584.66 c -14.832,7.059 -29.754,13.199 -44.754,18.449 -15.007,5.243 -29.746,7.86 -44.21,7.86"
         style="fill:#636466;fill-opacity:1;fill-rule:nonzero;stroke:none"
         id="path14"
         inkscape:connector-curvature="0" /><path
         d="m 534.316,587.641 c 11.211,0 20.528,-0.809 27.942,-2.442 l -6.242,-77.57 c -6.692,1.812 -14.825,2.723 -24.407,2.723 -26.406,0 -46.968,-6.782 -61.707,-20.34 -14.734,-13.571 -22.097,-32.551 -22.097,-56.973 l 0,-154.32 -82.727,0 0,303.23 62.649,0 12.207,-50.988 4.07,0 c 9.394,17 22.101,30.687 38.105,41.09 16.004,10.398 33.399,15.59 52.207,15.59"
         style="fill:#636466;fill-opacity:1;fill-rule:nonzero;stroke:none"
         id="path16"
         inkscape:connector-curvature="0" /><path
         d="m 742.891,528.789 c -17.539,0 -31.282,-5.559 -41.219,-16.68 -9.953,-11.117 -15.649,-26.898 -17.094,-47.328 l 116.086,0 c -0.359,20.43 -5.691,36.211 -15.996,47.328 -10.313,11.121 -24.238,16.68 -41.777,16.68 z m 11.672,-255.488 c -48.833,0 -86.985,13.461 -114.465,40.41 -27.493,26.937 -41.231,65.098 -41.231,114.449 0,50.809 12.703,90.102 38.113,117.852 25.403,27.758 60.532,41.629 105.375,41.629 42.848,0 76.208,-12.192 100.079,-36.61 23.867,-24.41 35.796,-58.133 35.796,-101.172 l 0,-40.14 -195.542,0 c 0.898,-23.5 7.859,-41.86 20.875,-55.059 13.019,-13.199 31.281,-19.801 54.789,-19.801 18.257,0 35.535,1.903 51.804,5.692 16.282,3.801 33.274,9.859 50.996,18.179 l 0,-64.011 c -14.472,-7.227 -29.929,-12.61 -46.386,-16.137 -16.453,-3.523 -36.524,-5.281 -60.203,-5.281"
         style="fill:#636466;fill-opacity:1;fill-rule:nonzero;stroke:none"
         id="path18"
         inkscape:connector-curvature="0" /><path
         d="m 1113.66,419.219 -32,-1.09 c -24.05,-0.719 -41.95,-5.07 -53.7,-13.02 -11.76,-7.949 -17.63,-20.07 -17.63,-36.339 0,-23.329 13.38,-34.989 40.14,-34.989 19.16,0 34.49,5.508 45.98,16.539 11.47,11.02 17.21,25.672 17.21,43.942 l 0,24.957 z m 24.42,-140.5 -16.01,41.23 -2.17,0 c -13.92,-17.551 -28.25,-29.707 -42.99,-36.488 -14.73,-6.77 -33.95,-10.16 -57.63,-10.16 -29.112,0 -52.034,8.308 -68.76,24.949 -16.719,16.629 -25.09,40.309 -25.09,71.051 0,32.191 11.258,55.918 33.769,71.199 22.512,15.289 56.451,23.742 101.841,25.371 l 52.62,1.629 0,13.289 c 0,30.731 -15.73,46.102 -47.19,46.102 -24.23,0 -52.71,-7.321 -85.435,-21.969 l -27.39,55.879 c 34.89,18.258 73.595,27.39 116.085,27.39 40.68,0 71.87,-8.859 93.57,-26.582 21.7,-17.73 32.55,-44.66 32.55,-80.82 l 0,-202.07 -57.77,0"
         style="fill:#636466;fill-opacity:1;fill-rule:nonzero;stroke:none"
         id="path20"
         inkscape:connector-curvature="0" /><path
         d="m 1408.76,339.211 c 14.46,0 31.83,3.148 52.08,9.488 l 0,-61.57 c -20.62,-9.219 -45.94,-13.828 -75.95,-13.828 -33.08,0 -57.18,8.359 -72.28,25.09 -15.1,16.711 -22.65,41.8 -22.65,75.257 l 0,146.192 -39.6,0 0,34.992 45.57,27.668 23.86,64 52.9,0 0,-64.551 84.89,0 0,-62.109 -84.89,0 0,-146.192 c 0,-11.757 3.3,-20.437 9.9,-26.039 6.6,-5.609 15.32,-8.398 26.17,-8.398"
         style="fill:#636466;fill-opacity:1;fill-rule:nonzero;stroke:none"
         id="path22"
         inkscape:connector-curvature="0" /><path
         d="m 1604.86,278.719 -82.72,0 0,303.23 82.72,0 0,-303.23 z m -86.25,381.621 c 0,26.941 15,40.41 45.02,40.41 30.01,0 45.02,-13.469 45.02,-40.41 0,-12.84 -3.75,-22.828 -11.25,-29.969 -7.51,-7.152 -18.76,-10.711 -33.77,-10.711 -30.02,0 -45.02,13.551 -45.02,40.68"
         style="fill:#636466;fill-opacity:1;fill-rule:nonzero;stroke:none"
         id="path24"
         inkscape:connector-curvature="0" /><path
         d="m 1763.8,278.719 -115.55,303.23 86.53,0 58.58,-172.769 c 6.51,-21.879 10.58,-42.578 12.21,-62.11 l 1.63,0 c 0.9,17.36 4.97,38.051 12.2,62.11 l 58.31,172.769 86.53,0 -115.55,-303.23 -84.89,0"
         style="fill:#636466;fill-opacity:1;fill-rule:nonzero;stroke:none"
         id="path26"
         inkscape:connector-curvature="0" /><path
         d="m 2133.21,528.789 c -17.54,0 -31.28,-5.559 -41.23,-16.68 -9.94,-11.117 -15.63,-26.898 -17.08,-47.328 l 116.09,0 c -0.36,20.43 -5.7,36.211 -16.01,47.328 -10.3,11.121 -24.23,16.68 -41.77,16.68 z m 11.66,-255.488 c -48.82,0 -86.97,13.461 -114.45,40.41 -27.49,26.937 -41.23,65.098 -41.23,114.449 0,50.809 12.7,90.102 38.1,117.852 25.42,27.758 60.53,41.629 105.39,41.629 42.85,0 76.21,-12.192 100.07,-36.61 23.87,-24.41 35.8,-58.133 35.8,-101.172 l 0,-40.14 -195.55,0 c 0.91,-23.5 7.87,-41.86 20.89,-55.059 13.01,-13.199 31.28,-19.801 54.78,-19.801 18.26,0 35.54,1.903 51.81,5.692 16.27,3.801 33.27,9.859 50.98,18.179 l 0,-64.011 c -14.46,-7.227 -29.92,-12.61 -46.37,-16.137 -16.46,-3.523 -36.53,-5.281 -60.22,-5.281"
         style="fill:#636466;fill-opacity:1;fill-rule:nonzero;stroke:none"
         id="path28"
         inkscape:connector-curvature="0" /><path
         d="m 2517.81,655.992 c -49.72,0 -88.87,-15.91 -117.44,-47.73 -28.57,-31.832 -42.85,-75.403 -42.85,-130.731 0,-56.601 13.47,-100.539 40.41,-131.82 26.94,-31.281 65.46,-46.922 115.55,-46.922 33.26,0 63.82,4.242 91.67,12.75 l 0,-24.41 c -26.22,-9.219 -58.95,-13.828 -98.19,-13.828 -55.69,0 -99.54,17.988 -131.54,53.969 -32.01,35.98 -48.01,86.25 -48.01,150.8 0,40.328 7.64,75.852 22.92,106.59 15.28,30.738 37.25,54.481 65.91,71.211 28.65,16.711 61.97,25.078 99.94,25.078 38.7,0 73.32,-7.23 103.89,-21.699 l -11.12,-24.961 c -28.94,14.481 -59.31,21.703 -91.14,21.703"
         style="fill:#f0af13;fill-opacity:1;fill-rule:nonzero;stroke:none"
         id="path30"
         inkscape:connector-curvature="0" /><path
         d="m 2697.91,426.539 c 0,-40.508 8.9,-72.109 26.71,-94.797 17.81,-22.691 42.99,-34.043 75.54,-34.043 32.55,0 57.72,11.352 75.53,34.043 17.82,22.688 26.72,54.289 26.72,94.797 0,40.68 -8.99,72.242 -26.98,94.66 -18,22.41 -43.26,33.633 -75.81,33.633 -32.55,0 -57.64,-11.172 -75.26,-33.5 -17.64,-22.332 -26.45,-53.934 -26.45,-94.793 z m 232.72,0 c 0,-48.109 -11.67,-85.66 -35,-112.699 -23.33,-27.039 -55.51,-40.539 -96.56,-40.539 -25.86,0 -48.64,6.23 -68.35,18.711 -19.7,12.48 -34.8,30.379 -45.29,53.699 -10.49,23.328 -15.73,50.258 -15.73,80.828 0,48.102 11.66,85.57 34.99,112.422 23.32,26.859 55.33,40.281 96.01,40.281 40.5,0 72.29,-13.613 95.34,-40.832 23.05,-27.199 34.59,-64.5 34.59,-111.871"
         style="fill:#f0af13;fill-opacity:1;fill-rule:nonzero;stroke:none"
         id="path32"
         inkscape:connector-curvature="0" /><path
         d="m 3217.85,278.719 0,191.222 c 0,29.649 -6.23,51.207 -18.71,64.688 -12.48,13.461 -31.83,20.203 -58.05,20.203 -35.25,0 -61.06,-8.91 -77.43,-26.723 -16.37,-17.808 -24.55,-46.699 -24.55,-86.66 l 0,-162.73 -26.84,0 0,294.82 22.78,0 5.16,-40.41 1.62,0 c 19.17,30.73 53.25,46.113 102.25,46.113 66.91,0 100.35,-35.89 100.35,-107.683 l 0,-192.84 -26.58,0"
         style="fill:#f0af13;fill-opacity:1;fill-rule:nonzero;stroke:none"
         id="path34"
         inkscape:connector-curvature="0" /><path
         d="m 3545.5,278.719 0,191.222 c 0,29.649 -6.23,51.207 -18.71,64.688 -12.48,13.461 -31.83,20.203 -58.05,20.203 -35.25,0 -61.06,-8.91 -77.43,-26.723 -16.37,-17.808 -24.55,-46.699 -24.55,-86.66 l 0,-162.73 -26.85,0 0,294.82 22.79,0 5.15,-40.41 1.62,0 c 19.17,30.73 53.25,46.113 102.26,46.113 66.9,0 100.35,-35.89 100.35,-107.683 l 0,-192.84 -26.58,0"
         style="fill:#f0af13;fill-opacity:1;fill-rule:nonzero;stroke:none"
         id="path36"
         inkscape:connector-curvature="0" /><path
         d="m 3778.76,555.371 c -28.39,0 -51.17,-9.359 -68.35,-28.07 -17.18,-18.719 -27.22,-45.699 -30.11,-80.969 l 182.27,0 c 0,34.18 -7.41,60.887 -22.24,80.148 -14.83,19.262 -35.35,28.891 -61.57,28.891 z m 7.87,-282.07 c -42.86,0 -76.27,13.191 -100.22,39.597 -23.97,26.391 -35.94,63.372 -35.94,110.922 0,47.02 11.57,84.672 34.72,112.969 23.14,28.293 54.33,42.453 93.57,42.453 34.72,0 62.11,-12.113 82.19,-36.344 20.07,-24.238 30.09,-57.136 30.09,-98.726 l 0,-21.703 -212.36,0 c 0.35,-40.508 9.81,-71.43 28.34,-92.77 18.54,-21.328 45.07,-32 79.61,-32 16.82,0 31.59,1.172 44.35,3.531 12.74,2.352 28.87,7.411 48.4,15.192 l 0,-24.41 c -16.64,-7.242 -32,-12.172 -46.1,-14.793 -14.11,-2.61 -29.66,-3.918 -46.65,-3.918"
         style="fill:#f0af13;fill-opacity:1;fill-rule:nonzero;stroke:none"
         id="path38"
         inkscape:connector-curvature="0" /><path
         d="m 4090.13,273.301 c -42.14,0 -75.14,13.281 -99.01,39.859 -23.86,26.582 -35.8,63.649 -35.8,111.211 0,48.82 12.39,86.84 37.16,114.039 24.78,27.219 58.67,40.832 101.71,40.832 25.5,0 49.91,-4.441 73.23,-13.301 l -7.32,-23.859 c -25.49,8.488 -47.65,12.75 -66.45,12.75 -36.17,0 -63.56,-11.172 -82.19,-33.5 -18.62,-22.332 -27.92,-54.48 -27.92,-96.422 0,-39.789 9.3,-70.93 27.92,-93.441 18.63,-22.508 44.66,-33.77 78.12,-33.77 26.76,0 51.62,4.801 74.59,14.383 l 0,-24.953 c -18.81,-9.219 -43.49,-13.828 -74.04,-13.828"
         style="fill:#f0af13;fill-opacity:1;fill-rule:nonzero;stroke:none"
         id="path40"
         inkscape:connector-curvature="0" /><path
         d="m 4314.16,297.16 c 16.99,0 31.83,1.449 44.48,4.34 l 0,-21.699 c -13.01,-4.332 -28.02,-6.5 -45.03,-6.5 -26.03,0 -45.25,6.949 -57.63,20.879 -12.39,13.922 -18.58,35.8 -18.58,65.629 l 0,190.41 -43.67,0 0,15.722 43.67,12.207 13.57,66.731 13.82,0 0,-71.34 86.53,0 0,-23.32 -86.53,0 0,-186.61 c 0,-22.609 3.98,-39.328 11.94,-50.179 7.96,-10.848 20.43,-16.27 37.43,-16.27"
         style="fill:#f0af13;fill-opacity:1;fill-rule:nonzero;stroke:none"
         id="path42"
         inkscape:connector-curvature="0" /><path
         d="m 192.168,120.621 38.469,72.098 18.14,0 -48.125,-88.278 0,-55.9215 -16.961,0 0,55.1405 -48.039,89.059 18.352,0 38.164,-72.098"
         style="fill:#636466;fill-opacity:1;fill-rule:nonzero;stroke:none"
         id="path44"
         inkscape:connector-curvature="0" /><path
         d="m 315.066,102.672 c 0,-13.8126 2.766,-24.3322 8.286,-31.5626 5.527,-7.2383 13.64,-10.8477 24.363,-10.8477 10.715,0 18.848,3.5899 24.402,10.7969 5.559,7.2031 8.344,17.7422 8.344,31.6134 0,13.738 -2.785,24.18 -8.344,31.308 -5.554,7.141 -13.75,10.7 -24.597,10.7 -10.723,0 -18.809,-3.508 -24.266,-10.551 -5.461,-7.027 -8.188,-17.52 -8.188,-31.457 z m 82.356,0 c 0,-17.6212 -4.442,-31.3829 -13.313,-41.2814 -8.875,-9.8906 -21.14,-14.8398 -36.796,-14.8398 -9.657,0 -18.243,2.2695 -25.743,6.8086 -7.488,4.5312 -13.281,11.039 -17.351,19.5312 -4.082,8.4688 -6.114,18.4102 -6.114,29.7814 0,17.617 4.407,31.348 13.211,41.168 8.813,9.84 21.047,14.75 36.692,14.75 15.129,0 27.137,-5.031 36.047,-15.09 8.914,-10.059 13.367,-23.668 13.367,-40.828"
         style="fill:#636466;fill-opacity:1;fill-rule:nonzero;stroke:none"
         id="path46"
         inkscape:connector-curvature="0" /><path
         d="m 479.48,156.621 0,-70.1288 c 0,-8.8125 2.004,-15.3828 6.016,-19.7305 4.008,-4.332 10.297,-6.5 18.84,-6.5 11.309,0 19.582,3.0899 24.805,9.2696 5.222,6.1796 7.839,16.2773 7.839,30.2773 l 0,56.8124 16.372,0 0,-108.1015 -13.508,0 -2.371,14.5 -0.891,0 c -3.352,-5.3281 -7.996,-9.3984 -13.953,-12.2304 -5.949,-2.8203 -12.734,-4.2383 -20.363,-4.2383 -13.157,0 -22.996,3.1211 -29.539,9.3594 -6.543,6.25 -9.817,16.25 -9.817,30 l 0,70.7108 16.57,0"
         style="fill:#636466;fill-opacity:1;fill-rule:nonzero;stroke:none"
         id="path48"
         inkscape:connector-curvature="0" /><path
         d="m 675.359,158.59 c 4.797,0 9.114,-0.391 12.922,-1.18 l -2.265,-15.191 c -4.473,0.992 -8.418,1.48 -11.836,1.48 -8.75,0 -16.231,-3.547 -22.442,-10.66 -6.211,-7.098 -9.316,-15.93 -9.316,-26.519 l 0,-58.0005 -16.375,0 0,108.1015 13.516,0 1.875,-20.019 0.789,0 c 4.003,7.027 8.836,12.457 14.492,16.269 5.652,3.82 11.875,5.719 18.64,5.719"
         style="fill:#636466;fill-opacity:1;fill-rule:nonzero;stroke:none"
         id="path50"
         inkscape:connector-curvature="0" /><path
         d="m 856.152,116.77 0,-53.9497 30.078,0 c 11.641,0 20.403,2.25 26.29,6.7617 5.878,4.5 8.828,11.5469 8.828,21.1602 0,8.9297 -3.02,15.5198 -9.035,19.7268 -6.012,4.191 -15.165,6.301 -27.458,6.301 l -28.703,0 z m 0,14.199 27.618,0 c 11.835,0 20.339,1.863 25.539,5.582 5.195,3.711 7.793,9.98 7.793,18.789 0,8.082 -2.891,13.91 -8.684,17.512 -5.781,3.57 -14.988,5.367 -27.605,5.367 l -24.661,0 0,-47.25 z m -16.765,61.75 40.73,0 c 19.129,0 32.969,-2.86 41.524,-8.578 8.547,-5.731 12.824,-14.77 12.824,-27.121 0,-8.559 -2.387,-15.61 -7.152,-21.161 -4.774,-5.558 -11.727,-9.16 -20.868,-10.8 l 0,-0.989 c 21.907,-3.75 32.852,-15.25 32.852,-34.5192 0,-12.8789 -4.356,-22.9414 -13.074,-30.1797 -8.711,-7.2305 -20.891,-10.8516 -36.535,-10.8516 l -50.301,0 0,144.1995"
         style="fill:#636466;fill-opacity:1;fill-rule:nonzero;stroke:none"
         id="path52"
         inkscape:connector-curvature="0" /><path
         d="m 1021.16,156.621 0,-70.1288 c 0,-8.8125 2,-15.3828 6.02,-19.7305 4,-4.332 10.29,-6.5 18.84,-6.5 11.3,0 19.58,3.0899 24.8,9.2696 5.22,6.1796 7.84,16.2773 7.84,30.2773 l 0,56.8124 16.37,0 0,-108.1015 -13.51,0 -2.37,14.5 -0.89,0 c -3.35,-5.3281 -8,-9.3984 -13.95,-12.2304 -5.95,-2.8203 -12.74,-4.2383 -20.36,-4.2383 -13.16,0 -23,3.1211 -29.55,9.3594 -6.54,6.25 -9.81,16.25 -9.81,30 l 0,70.7108 16.57,0"
         style="fill:#636466;fill-opacity:1;fill-rule:nonzero;stroke:none"
         id="path54"
         inkscape:connector-curvature="0" /><path
         d="m 1237.45,78.0117 c 0,-10.0508 -3.75,-17.8203 -11.24,-23.2812 -7.5,-5.461 -18.02,-8.1797 -31.56,-8.1797 -14.34,0 -25.52,2.2695 -33.54,6.8086 l 0,15.1797 c 5.2,-2.6289 10.77,-4.6993 16.72,-6.2071 5.95,-1.5117 11.69,-2.2617 17.21,-2.2617 8.55,0 15.13,1.3516 19.73,4.0899 4.6,2.7187 6.9,6.8789 6.9,12.4687 0,4.2109 -1.83,7.8125 -5.47,10.8008 -3.65,3 -10.77,6.5195 -21.36,10.6016 -10.05,3.7497 -17.2,7.0277 -21.44,9.8207 -4.25,2.789 -7.4,5.968 -9.47,9.519 -2.07,3.539 -3.11,7.781 -3.11,12.711 0,8.82 3.58,15.777 10.75,20.859 7.16,5.098 16.99,7.649 29.48,7.649 11.65,0 23.02,-2.36 34.14,-7.098 l -5.82,-13.312 c -10.85,4.461 -20.69,6.699 -29.5,6.699 -7.75,0 -13.61,-1.207 -17.55,-3.637 -3.94,-2.441 -5.91,-5.793 -5.91,-10.07 0,-2.891 0.73,-5.352 2.21,-7.391 1.48,-2.039 3.86,-3.98 7.15,-5.82 3.29,-1.84 9.6,-4.512 18.94,-7.992 12.82,-4.668 21.48,-9.367 25.98,-14.0979 4.51,-4.7422 6.76,-10.6914 6.76,-17.8594"
         style="fill:#636466;fill-opacity:1;fill-rule:nonzero;stroke:none"
         id="path56"
         inkscape:connector-curvature="0" /><path
         d="m 1318.43,48.5195 -16.37,0 0,108.1015 16.37,0 0,-108.1015 z M 1300.67,185.91 c 0,3.75 0.93,6.5 2.77,8.238 1.84,1.743 4.14,2.614 6.9,2.614 2.63,0 4.9,-0.883 6.81,-2.66 1.9,-1.782 2.86,-4.5 2.86,-8.192 0,-3.68 -0.96,-6.418 -2.86,-8.238 -1.91,-1.801 -4.18,-2.703 -6.81,-2.703 -2.76,0 -5.06,0.902 -6.9,2.703 -1.84,1.82 -2.77,4.558 -2.77,8.238"
         style="fill:#636466;fill-opacity:1;fill-rule:nonzero;stroke:none"
         id="path58"
         inkscape:connector-curvature="0" /><path
         d="m 1465.09,48.5195 0,69.9295 c 0,8.813 -2,15.383 -6.02,19.731 -4,4.34 -10.28,6.5 -18.84,6.5 -11.3,0 -19.59,-3.051 -24.85,-9.168 -5.25,-6.114 -7.89,-16.211 -7.89,-30.282 l 0,-56.7105 -16.37,0 0,108.1015 13.31,0 2.67,-14.801 0.79,0 c 3.35,5.34 8.05,9.461 14.1,12.391 6.05,2.918 12.79,4.379 20.22,4.379 13.02,0 22.82,-3.129 29.39,-9.41 6.57,-6.282 9.86,-16.328 9.86,-30.141 l 0,-70.5195 -16.37,0"
         style="fill:#636466;fill-opacity:1;fill-rule:nonzero;stroke:none"
         id="path60"
         inkscape:connector-curvature="0" /><path
         d="m 1594.3,144.879 c -8.67,0 -15.6,-2.82 -20.76,-8.477 -5.16,-5.652 -8.21,-13.48 -9.13,-23.472 l 56.52,0 c 0,10.32 -2.3,18.23 -6.91,23.718 -4.6,5.493 -11.17,8.231 -19.72,8.231 z m 4.44,-98.3282 c -15.98,0 -28.58,4.8594 -37.82,14.5976 -9.24,9.7305 -13.86,23.2422 -13.86,40.5426 0,17.418 4.29,31.258 12.87,41.52 8.58,10.25 20.1,15.379 34.57,15.379 13.55,0 24.26,-4.449 32.15,-13.36 7.89,-8.91 11.84,-20.66 11.84,-35.261 l 0,-10.3479 -74.47,0 c 0.33,-12.6992 3.54,-22.332 9.62,-28.9102 6.08,-6.5703 14.64,-9.8593 25.69,-9.8593 11.64,0 23.14,2.4297 34.52,7.2968 l 0,-14.5976 c -5.78,-2.5 -11.26,-4.2891 -16.42,-5.3711 -5.16,-1.0781 -11.39,-1.6289 -18.69,-1.6289"
         style="fill:#636466;fill-opacity:1;fill-rule:nonzero;stroke:none"
         id="path62"
         inkscape:connector-curvature="0" /><path
         d="m 1774.1,78.0117 c 0,-10.0508 -3.75,-17.8203 -11.24,-23.2812 -7.5,-5.461 -18.02,-8.1797 -31.56,-8.1797 -14.34,0 -25.52,2.2695 -33.54,6.8086 l 0,15.1797 c 5.2,-2.6289 10.78,-4.6993 16.72,-6.2071 5.95,-1.5117 11.69,-2.2617 17.21,-2.2617 8.55,0 15.13,1.3516 19.73,4.0899 4.6,2.7187 6.9,6.8789 6.9,12.4687 0,4.2109 -1.83,7.8125 -5.47,10.8008 -3.65,3 -10.77,6.5195 -21.36,10.6016 -10.05,3.7497 -17.2,7.0277 -21.44,9.8207 -4.25,2.789 -7.4,5.968 -9.47,9.519 -2.07,3.539 -3.11,7.781 -3.11,12.711 0,8.82 3.58,15.777 10.75,20.859 7.16,5.098 16.99,7.649 29.49,7.649 11.64,0 23.01,-2.36 34.13,-7.098 l -5.82,-13.312 c -10.85,4.461 -20.69,6.699 -29.5,6.699 -7.75,0 -13.61,-1.207 -17.55,-3.637 -3.94,-2.441 -5.91,-5.793 -5.91,-10.07 0,-2.891 0.73,-5.352 2.21,-7.391 1.48,-2.039 3.86,-3.98 7.15,-5.82 3.29,-1.84 9.6,-4.512 18.94,-7.992 12.82,-4.668 21.48,-9.367 25.98,-14.0979 4.51,-4.7422 6.76,-10.6914 6.76,-17.8594"
         style="fill:#636466;fill-opacity:1;fill-rule:nonzero;stroke:none"
         id="path64"
         inkscape:connector-curvature="0" /><path
         d="m 1908.44,78.0117 c 0,-10.0508 -3.75,-17.8203 -11.24,-23.2812 -7.5,-5.461 -18.02,-8.1797 -31.57,-8.1797 -14.33,0 -25.51,2.2695 -33.53,6.8086 l 0,15.1797 c 5.19,-2.6289 10.76,-4.6993 16.71,-6.2071 5.96,-1.5117 11.69,-2.2617 17.22,-2.2617 8.54,0 15.12,1.3516 19.72,4.0899 4.6,2.7187 6.91,6.8789 6.91,12.4687 0,4.2109 -1.83,7.8125 -5.48,10.8008 -3.64,3 -10.76,6.5195 -21.35,10.6016 -10.06,3.7497 -17.22,7.0277 -21.45,9.8207 -4.24,2.789 -7.4,5.968 -9.48,9.519 -2.07,3.539 -3.1,7.781 -3.1,12.711 0,8.82 3.58,15.777 10.75,20.859 7.17,5.098 17,7.649 29.49,7.649 11.64,0 23.02,-2.36 34.13,-7.098 l -5.82,-13.312 c -10.85,4.461 -20.68,6.699 -29.49,6.699 -7.76,0 -13.61,-1.207 -17.56,-3.637 -3.94,-2.441 -5.92,-5.793 -5.92,-10.07 0,-2.891 0.75,-5.352 2.22,-7.391 1.48,-2.039 3.87,-3.98 7.15,-5.82 3.29,-1.84 9.6,-4.512 18.94,-7.992 12.83,-4.668 21.49,-9.367 25.99,-14.0979 4.5,-4.7422 6.76,-10.6914 6.76,-17.8594"
         style="fill:#636466;fill-opacity:1;fill-rule:nonzero;stroke:none"
         id="path66"
         inkscape:connector-curvature="0" /><path
         d="m 2110.34,48.5195 -16.77,0 0,129.3125 -45.66,0 0,14.887 108.1,0 0,-14.887 -45.67,0 0,-129.3125"
         style="fill:#636466;fill-opacity:1;fill-rule:nonzero;stroke:none"
         id="path68"
         inkscape:connector-curvature="0" /><path
         d="m 2242.69,60.0703 c 10.19,0 18.2,2.7891 24.02,8.3711 5.81,5.5899 8.72,13.418 8.72,23.4805 l 0,9.7691 -16.37,-0.699 c -13.02,-0.461 -22.41,-2.4803 -28.16,-6.0623 -5.75,-3.5899 -8.62,-9.1602 -8.62,-16.7188 0,-5.9218 1.78,-10.4218 5.37,-13.5195 3.58,-3.082 8.59,-4.6211 15.04,-4.6211 z m 36.99,-11.5508 -3.26,15.3907 -0.79,0 c -5.4,-6.7696 -10.77,-11.3594 -16.13,-13.7579 -5.36,-2.4023 -12.05,-3.6015 -20.07,-3.6015 -10.72,0 -19.12,2.7578 -25.19,8.2812 -6.09,5.5274 -9.13,13.3789 -9.13,23.5782 0,21.8198 17.46,33.2698 52.37,34.3198 l 18.35,0.59 0,6.711 c 0,8.481 -1.83,14.739 -5.48,18.789 -3.64,4.039 -9.48,6.059 -17.5,6.059 -9.01,0 -19.21,-2.758 -30.57,-8.277 l -5.03,12.527 c 5.32,2.891 11.15,5.152 17.5,6.793 6.34,1.648 12.7,2.476 19.09,2.476 12.88,0 22.43,-2.867 28.64,-8.589 6.22,-5.719 9.33,-14.887 9.33,-27.52 l 0,-73.7695 -12.13,0"
         style="fill:#636466;fill-opacity:1;fill-rule:nonzero;stroke:none"
         id="path70"
         inkscape:connector-curvature="0" /><path
         d="m 2374.66,122 c 0,-7.559 2.13,-13.281 6.4,-17.16 4.28,-3.879 10.23,-5.8205 17.86,-5.8205 15.97,0 23.96,7.7505 23.96,23.2695 0,16.242 -8.09,24.371 -24.26,24.371 -7.69,0 -13.61,-2.07 -17.75,-6.211 -4.14,-4.14 -6.21,-10.297 -6.21,-18.449 z m -8.88,-91.6211 c 0,-5.8594 2.46,-10.2969 7.39,-13.3203 4.94,-3.0195 12.01,-4.5273 21.21,-4.5273 13.75,0 23.92,2.0507 30.53,6.1601 6.6,4.1094 9.91,9.6797 9.91,16.7188 0,5.8515 -1.81,9.9101 -5.43,12.1718 -3.61,2.2696 -10.42,3.3985 -20.42,3.3985 l -19.61,0 c -7.44,0 -13.23,-1.7617 -17.37,-5.3203 -4.14,-3.5391 -6.21,-8.6407 -6.21,-15.2813 z m 86.2,126.2421 0,-10.351 -20.02,-2.379 c 1.84,-2.289 3.48,-5.309 4.93,-9.02 1.45,-3.711 2.17,-7.91 2.17,-12.582 0,-10.578 -3.62,-19.027 -10.85,-25.3398 -7.23,-6.3086 -17.16,-9.4687 -29.78,-9.4687 -3.22,0 -6.25,0.2617 -9.07,0.789 -6.98,-3.6797 -10.46,-8.3203 -10.46,-13.9101 0,-2.9571 1.22,-5.1406 3.65,-6.5586 2.43,-1.4102 6.6,-2.1211 12.52,-2.1211 l 19.14,0 c 11.7,0 20.69,-2.4609 26.97,-7.3906 6.28,-4.9297 9.42,-12.0977 9.42,-21.5078 0,-11.961 -4.8,-21.0821 -14.4,-27.35942 C 2426.6,3.14063 2412.6,0 2394.18,0 2380.05,0 2369.15,2.62109 2361.48,7.89063 2353.83,13.1484 2350,20.582 2350,30.1719 c 0,6.5781 2.1,12.2695 6.31,17.0703 4.21,4.7969 10.13,8.0469 17.75,9.7695 -2.76,1.2383 -5.08,3.1797 -6.95,5.8086 -1.88,2.6406 -2.81,5.6914 -2.81,9.1797 0,3.9414 1.05,7.3906 3.16,10.3516 2.1,2.957 5.42,5.8203 9.96,8.5781 -5.59,2.3008 -10.14,6.2187 -13.66,11.7423 -3.52,5.519 -5.28,11.84 -5.28,18.937 0,11.832 3.55,20.961 10.65,27.36 7.1,6.422 17.17,9.621 30.19,9.621 5.65,0 10.75,-0.649 15.28,-1.969 l 37.38,0"
         style="fill:#636466;fill-opacity:1;fill-rule:nonzero;stroke:none"
         id="path72"
         inkscape:connector-curvature="0" /><path
         d="m 2512.15,48.5195 16.3711,0 0,153.473 -16.3711,0 0,-153.473 z"
         style="fill:#636466;fill-opacity:1;fill-rule:nonzero;stroke:none"
         id="path74"
         inkscape:connector-curvature="0" /><path
         d="m 2617.59,48.5195 -16.37,0 0,108.1015 16.37,0 0,-108.1015 z M 2599.83,185.91 c 0,3.75 0.92,6.5 2.77,8.238 1.83,1.743 4.14,2.614 6.9,2.614 2.63,0 4.89,-0.883 6.81,-2.66 1.9,-1.782 2.86,-4.5 2.86,-8.192 0,-3.68 -0.96,-6.418 -2.86,-8.238 -1.92,-1.801 -4.18,-2.703 -6.81,-2.703 -2.76,0 -5.07,0.902 -6.9,2.703 -1.85,1.82 -2.77,4.558 -2.77,8.238"
         style="fill:#636466;fill-opacity:1;fill-rule:nonzero;stroke:none"
         id="path76"
         inkscape:connector-curvature="0" /><path
         d="m 2764.25,48.5195 0,69.9295 c 0,8.813 -2,15.383 -6.02,19.731 -4.01,4.34 -10.29,6.5 -18.84,6.5 -11.3,0 -19.59,-3.051 -24.85,-9.168 -5.26,-6.114 -7.89,-16.211 -7.89,-30.282 l 0,-56.7105 -16.37,0 0,108.1015 13.31,0 2.67,-14.801 0.78,0 c 3.36,5.34 8.06,9.461 14.11,12.391 6.05,2.918 12.79,4.379 20.22,4.379 13.01,0 22.81,-3.129 29.39,-9.41 6.57,-6.282 9.87,-16.328 9.87,-30.141 l 0,-70.5195 -16.38,0"
         style="fill:#636466;fill-opacity:1;fill-rule:nonzero;stroke:none"
         id="path78"
         inkscape:connector-curvature="0" /><path
         d="m 2893.45,144.879 c -8.68,0 -15.6,-2.82 -20.76,-8.477 -5.16,-5.652 -8.21,-13.48 -9.13,-23.472 l 56.52,0 c 0,10.32 -2.31,18.23 -6.91,23.718 -4.6,5.493 -11.18,8.231 -19.72,8.231 z m 4.44,-98.3282 c -15.99,0 -28.59,4.8594 -37.83,14.5976 -9.24,9.7305 -13.86,23.2422 -13.86,40.5426 0,17.418 4.3,31.258 12.87,41.52 8.59,10.25 20.11,15.379 34.57,15.379 13.55,0 24.27,-4.449 32.16,-13.36 7.89,-8.91 11.84,-20.66 11.84,-35.261 l 0,-10.3479 -74.47,0 c 0.33,-12.6992 3.53,-22.332 9.61,-28.9102 6.09,-6.5703 14.65,-9.8593 25.7,-9.8593 11.64,0 23.14,2.4297 34.52,7.2968 l 0,-14.5976 c -5.78,-2.5 -11.26,-4.2891 -16.43,-5.3711 -5.15,-1.0781 -11.38,-1.6289 -18.68,-1.6289"
         style="fill:#636466;fill-opacity:1;fill-rule:nonzero;stroke:none"
         id="path80"
         inkscape:connector-curvature="0" /><path
         d="m 3159.85,124.07 49.03,0 0,-70.1286 c -7.64,-2.4297 -15.39,-4.2695 -23.28,-5.5195 -7.89,-1.25 -17.04,-1.8711 -27.43,-1.8711 -21.82,0 -38.82,6.4883 -50.98,19.4805 -12.17,12.9804 -18.25,31.1796 -18.25,54.5897 0,14.988 3,28.129 9.03,39.41 6.01,11.27 14.68,19.879 25.99,25.84 11.3,5.938 24.56,8.918 39.74,8.918 15.38,0 29.72,-2.828 43,-8.48 l -6.5,-14.797 c -13.02,5.527 -25.55,8.289 -37.58,8.289 -17.56,0 -31.27,-5.231 -41.14,-15.68 -9.86,-10.461 -14.79,-24.949 -14.79,-43.5 0,-19.461 4.76,-34.2304 14.26,-44.289 9.5,-10.0507 23.45,-15.082 41.86,-15.082 9.99,0 19.76,1.1484 29.3,3.4414 l 0,44.3906 -32.26,0 0,14.988"
         style="fill:#636466;fill-opacity:1;fill-rule:nonzero;stroke:none"
         id="path82"
         inkscape:connector-curvature="0" /><path
         d="m 3289.95,102.672 c 0,-13.8126 2.76,-24.3322 8.28,-31.5626 5.53,-7.2383 13.65,-10.8477 24.37,-10.8477 10.71,0 18.85,3.5899 24.4,10.7969 5.56,7.2031 8.34,17.7422 8.34,31.6134 0,13.738 -2.78,24.18 -8.34,31.308 -5.55,7.141 -13.76,10.7 -24.61,10.7 -10.71,0 -18.8,-3.508 -24.26,-10.551 -5.45,-7.027 -8.18,-17.52 -8.18,-31.457 z m 82.35,0 c 0,-17.6212 -4.44,-31.3829 -13.32,-41.2814 -8.87,-9.8906 -21.13,-14.8398 -36.78,-14.8398 -9.67,0 -18.24,2.2695 -25.74,6.8086 -7.5,4.5312 -13.29,11.039 -17.36,19.5312 -4.08,8.4688 -6.12,18.4102 -6.12,29.7814 0,17.617 4.4,31.348 13.22,41.168 8.81,9.84 21.04,14.75 36.69,14.75 15.12,0 27.14,-5.031 36.05,-15.09 8.91,-10.059 13.36,-23.668 13.36,-40.828"
         style="fill:#636466;fill-opacity:1;fill-rule:nonzero;stroke:none"
         id="path84"
         inkscape:connector-curvature="0" /><path
         d="m 3480.21,144.879 c -8.69,0 -15.6,-2.82 -20.77,-8.477 -5.15,-5.652 -8.2,-13.48 -9.12,-23.472 l 56.52,0 c 0,10.32 -2.31,18.23 -6.91,23.718 -4.6,5.493 -11.18,8.231 -19.72,8.231 z m 4.44,-98.3282 c -15.99,0 -28.6,4.8594 -37.83,14.5976 -9.24,9.7305 -13.86,23.2422 -13.86,40.5426 0,17.418 4.3,31.258 12.87,41.52 8.58,10.25 20.11,15.379 34.57,15.379 13.55,0 24.27,-4.449 32.16,-13.36 7.89,-8.91 11.83,-20.66 11.83,-35.261 l 0,-10.3479 -74.46,0 c 0.32,-12.6992 3.53,-22.332 9.61,-28.9102 6.09,-6.5703 14.65,-9.8593 25.69,-9.8593 11.65,0 23.15,2.4297 34.53,7.2968 l 0,-14.5976 c -5.79,-2.5 -11.26,-4.2891 -16.43,-5.3711 -5.16,-1.0781 -11.39,-1.6289 -18.68,-1.6289"
         style="fill:#636466;fill-opacity:1;fill-rule:nonzero;stroke:none"
         id="path86"
         inkscape:connector-curvature="0" /><path
         d="m 3660.01,78.0117 c 0,-10.0508 -3.75,-17.8203 -11.24,-23.2812 -7.5,-5.461 -18.02,-8.1797 -31.56,-8.1797 -14.34,0 -25.52,2.2695 -33.54,6.8086 l 0,15.1797 c 5.2,-2.6289 10.76,-4.6993 16.72,-6.2071 5.95,-1.5117 11.69,-2.2617 17.21,-2.2617 8.54,0 15.12,1.3516 19.72,4.0899 4.6,2.7187 6.91,6.8789 6.91,12.4687 0,4.2109 -1.83,7.8125 -5.48,10.8008 -3.64,3 -10.76,6.5195 -21.35,10.6016 -10.06,3.7497 -17.2,7.0277 -21.45,9.8207 -4.24,2.789 -7.4,5.968 -9.47,9.519 -2.07,3.539 -3.1,7.781 -3.1,12.711 0,8.82 3.57,15.777 10.74,20.859 7.17,5.098 17,7.649 29.49,7.649 11.64,0 23.02,-2.36 34.13,-7.098 l -5.82,-13.312 c -10.85,4.461 -20.68,6.699 -29.49,6.699 -7.76,0 -13.61,-1.207 -17.56,-3.637 -3.94,-2.441 -5.91,-5.793 -5.91,-10.07 0,-2.891 0.74,-5.352 2.22,-7.391 1.48,-2.039 3.86,-3.98 7.15,-5.82 3.28,-1.84 9.6,-4.512 18.94,-7.992 12.82,-4.668 21.48,-9.367 25.98,-14.0979 4.5,-4.7422 6.76,-10.6914 6.76,-17.8594"
         style="fill:#636466;fill-opacity:1;fill-rule:nonzero;stroke:none"
         id="path88"
         inkscape:connector-curvature="0" /><path
         d="m 3927,48.5195 -16.77,0 0,67.8595 -75.94,0 0,-67.8595 -16.77,0 0,144.1995 16.77,0 0,-61.348 75.94,0 0,61.348 16.77,0 0,-144.1995"
         style="fill:#636466;fill-opacity:1;fill-rule:nonzero;stroke:none"
         id="path90"
         inkscape:connector-curvature="0" /><path
         d="m 4043.28,144.879 c -8.68,0 -15.59,-2.82 -20.76,-8.477 -5.16,-5.652 -8.2,-13.48 -9.12,-23.472 l 56.51,0 c 0,10.32 -2.3,18.23 -6.9,23.718 -4.6,5.493 -11.18,8.231 -19.73,8.231 z m 4.44,-98.3282 c -15.98,0 -28.59,4.8594 -37.83,14.5976 -9.24,9.7305 -13.85,23.2422 -13.85,40.5426 0,17.418 4.29,31.258 12.87,41.52 8.58,10.25 20.1,15.379 34.57,15.379 13.54,0 24.26,-4.449 32.15,-13.36 7.9,-8.91 11.84,-20.66 11.84,-35.261 l 0,-10.3479 -74.46,0 c 0.32,-12.6992 3.52,-22.332 9.61,-28.9102 6.08,-6.5703 14.65,-9.8593 25.69,-9.8593 11.64,0 23.15,2.4297 34.52,7.2968 l 0,-14.5976 c -5.78,-2.5 -11.26,-4.2891 -16.42,-5.3711 -5.16,-1.0781 -11.39,-1.6289 -18.69,-1.6289"
         style="fill:#636466;fill-opacity:1;fill-rule:nonzero;stroke:none"
         id="path92"
         inkscape:connector-curvature="0" /><path
         d="m 4202.67,158.59 c 4.8,0 9.11,-0.391 12.92,-1.18 l -2.27,-15.191 c -4.47,0.992 -8.42,1.48 -11.84,1.48 -8.74,0 -16.22,-3.547 -22.44,-10.66 -6.21,-7.098 -9.31,-15.93 -9.31,-26.519 l 0,-58.0005 -16.37,0 0,108.1015 13.51,0 1.87,-20.019 0.79,0 c 4.01,7.027 8.84,12.457 14.49,16.269 5.66,3.82 11.88,5.719 18.65,5.719"
         style="fill:#636466;fill-opacity:1;fill-rule:nonzero;stroke:none"
         id="path94"
         inkscape:connector-curvature="0" /><path
         d="m 4315.01,144.879 c -8.68,0 -15.6,-2.82 -20.76,-8.477 -5.16,-5.652 -8.21,-13.48 -9.12,-23.472 l 56.51,0 c 0,10.32 -2.3,18.23 -6.9,23.718 -4.6,5.493 -11.19,8.231 -19.73,8.231 z m 4.44,-98.3282 c -15.98,0 -28.59,4.8594 -37.83,14.5976 -9.24,9.7305 -13.86,23.2422 -13.86,40.5426 0,17.418 4.3,31.258 12.87,41.52 8.59,10.25 20.11,15.379 34.58,15.379 13.54,0 24.26,-4.449 32.15,-13.36 7.89,-8.91 11.84,-20.66 11.84,-35.261 l 0,-10.3479 -74.46,0 c 0.32,-12.6992 3.52,-22.332 9.61,-28.9102 6.08,-6.5703 14.64,-9.8593 25.69,-9.8593 11.64,0 23.14,2.4297 34.52,7.2968 l 0,-14.5976 c -5.78,-2.5 -11.26,-4.2891 -16.43,-5.3711 -5.15,-1.0781 -11.38,-1.6289 -18.68,-1.6289"
         style="fill:#636466;fill-opacity:1;fill-rule:nonzero;stroke:none"
         id="path96"
         inkscape:connector-curvature="0" /><path
         d="m 1741.69,1599.97 -197.83,342.53 197.83,342.46 665.82,0 -131.78,228.24 -659.56,0 -329.78,-570.91 329.8,-571.18 659.54,0 132.09,228.86 -666.13,0"
         style="fill:#f0af13;fill-opacity:1;fill-rule:nonzero;stroke:none"
         id="path98"
         inkscape:connector-curvature="0" /><path
         d="m 2497.53,1221.51 197.83,342.53 -197.83,342.46 -665.84,0 131.82,228.24 659.56,0 329.74,-570.9 -329.79,-571.199 -659.51,0 -132.1,228.869 666.12,0"
         style="fill:#636466;fill-opacity:1;fill-rule:nonzero;stroke:none"
         id="path100"
         inkscape:connector-curvature="0" /></g></g></svg>